<svg xmlns="http://www.w3.org/2000/svg" id="Calque_1" viewBox="0 0 566.93 566.93"><defs><style> .st0 { fill: none; } .st1 { fill: #dc4b3b; } </style></defs><path class="st0" d="M192.74,445.63c-3.77,0-6.78.61-9.09,1.46-2.31.9-4,2.07-5.18,3.34-.8.85-1.37,1.78-1.79,2.69-.57,1.22-.85,2.59-.85,3.81,0,1.41.33,2.78.9,4,.61,1.27,1.51,2.4,2.69,3.34.8.61,1.69,1.18,2.82,1.6,1.46.57,3.25.94,5.42.94h.38l.37.11h.61c.7,0,1.98-.11,3.58-.48,1.6-.43,3.54-1.08,5.7-2.36,1.46-.85,2.97-1.98,4.56-3.34,1.56-1.51,3.16-3.3,4.81-5.56v-9.56h-14.93Z"></path><path class="st0" d="M326.52,425.24l-.8-.52-.66-.33h-.04l-.61-.28-.89-.32c-2.22-.86-4.76-1.28-7.54-1.28-2.92,0-5.65.57-8.15,1.65-2.5,1.08-4.81,2.74-6.87,4.9-2.03,2.21-3.58,4.61-4.62,7.16-1.04,2.59-1.51,5.32-1.56,8.29v.09c0,2.91.57,5.7,1.6,8.29,1.04,2.59,2.64,5,4.71,7.16,2.07,2.17,4.38,3.77,6.88,4.94,2.5,1.04,5.13,1.56,7.96,1.56h2.31l2.07-.33h.1c1.32-.33,2.68-.81,4-1.41l.09-.05h.05c1.46-.66,2.68-1.41,3.76-2.21,1.08-.85,1.94-1.7,2.69-2.64l.14-.24v-30.15l-.19-.23c-1.32-1.65-2.83-3.01-4.43-4.05Z"></path><path class="st0" d="M106.73,414.35c-1.32-.98-2.88-1.88-4.71-2.73-1.7-.75-3.39-1.37-5.04-1.79h-.05l-2.49-.42h-2.83c-3.49,0-6.78.71-9.8,2.02-3.06,1.37-5.89,3.35-8.43,5.98-2.59,2.74-4.52,5.61-5.84,8.81-1.27,3.2-1.93,6.59-1.93,10.27s.56,7.01,1.88,10.22c1.27,3.2,3.2,6.08,5.7,8.76,2.5,2.64,5.32,4.67,8.39,6.03,3.11,1.31,6.45,2.03,10.03,2.03,4.24,0,7.96-.75,11.16-2.36,2.69-1.37,5.09-3.34,7.21-5.98l.24-.28v-37.02l-.19-.28c-.85-1.12-1.98-2.21-3.3-3.25Z"></path><path class="st0" d="M507.54,430.52c-.75-1.32-1.61-2.5-2.54-3.49-1.27-1.37-2.74-2.44-4.33-3.24-.9-.48-1.89-.86-3.02-1.09-1.18-.33-2.49-.47-4-.47h-16.53v45.12h16.44c1.28,0,2.4-.14,3.49-.33,1.08-.23,2.07-.56,2.92-.94,1.88-.85,3.49-1.98,4.9-3.48.94-1,1.79-2.13,2.55-3.4.98-1.7,1.84-3.63,2.4-5.7.8-2.73,1.22-5.74,1.22-8.76,0-2.54-.28-5.18-.94-7.58-.56-2.45-1.41-4.71-2.54-6.64Z"></path><path class="st1" d="M520.02,433.01c-.8-2.83-1.93-5.51-3.44-8.1-1.13-1.89-2.45-3.67-3.95-5.28-2.31-2.45-5.04-4.47-8.29-5.89-1.6-.7-3.3-1.22-5.08-1.59-1.79-.38-3.63-.57-5.61-.57h-27.17l.04,66.41h27.04c2.31,0,4.52-.22,6.59-.79,1.79-.48,3.58-1.09,5.18-1.89,2.87-1.41,5.32-3.3,7.34-5.51,1.56-1.7,2.92-3.54,4-5.46,1.74-2.97,2.97-6.13,3.77-9.47.8-3.3,1.23-6.69,1.23-10.13,0-3.95-.57-7.91-1.66-11.72ZM509.8,453.5c-.56,2.07-1.42,4-2.4,5.7-.76,1.27-1.61,2.4-2.55,3.4-1.41,1.5-3.02,2.63-4.9,3.48-.85.38-1.84.71-2.92.94-1.08.19-2.21.33-3.49.33h-16.44v-45.12h16.53c1.51,0,2.83.14,4,.47,1.13.23,2.12.61,3.02,1.09,1.6.8,3.06,1.88,4.33,3.24.94.98,1.79,2.17,2.54,3.49,1.13,1.93,1.98,4.19,2.54,6.64.66,2.4.94,5.04.94,7.58,0,3.02-.43,6.03-1.22,8.76Z"></path><path class="st1" d="M449.55,453.03c0,1.36-.14,2.59-.33,3.67-.38,1.98-1.08,3.54-1.93,4.9-.71,1.08-1.51,1.94-2.36,2.69-1.32,1.18-2.87,2.03-4.62,2.64-1.69.61-3.58.93-5.46.93s-3.81-.32-5.61-.93c-1.28-.48-2.5-1.14-3.57-1.94-.8-.61-1.56-1.26-2.27-2.02-.94-1.18-1.84-2.54-2.35-4.19-.57-1.65-.94-3.58-.94-5.84v-41.55h-10.65v41.55c0,2.02.19,3.95.56,5.79.66,3.2,1.84,6.13,3.44,8.62,1.23,1.89,2.69,3.54,4.29,4.9,2.4,2.11,5.18,3.67,8.06,4.7,2.96,1.03,5.98,1.56,9.04,1.56s6.22-.53,9.14-1.6c2.22-.71,4.33-1.89,6.31-3.3,1.46-1.03,2.78-2.31,4-3.72,1.84-2.12,3.29-4.62,4.33-7.49.98-2.82,1.55-5.98,1.55-9.37v-41.73h-10.64v41.73Z"></path><path class="st1" d="M400.28,448.41c-.76-1.08-1.61-2.07-2.54-2.92-.85-.79-1.74-1.5-2.74-2.11-1.79-1.13-3.72-1.98-5.6-2.64-1.65-.61-3.34-1.03-5.04-1.46-1.51-.32-2.97-.56-4.43-.89-2.55-.53-4.95-.94-7.12-1.47-1.6-.37-3.06-.75-4.29-1.22-.89-.33-1.65-.71-2.22-1.08l-1.03-.76-.47-.56-.43-.89c-.09-.38-.19-.85-.19-1.51v-.66c.05-.75.19-1.37.38-1.98l.61-1.36c.43-.75.94-1.46,1.65-2.07.52-.42,1.13-.9,1.79-1.28,1.04-.57,2.17-.98,3.53-1.32,1.32-.28,2.74-.48,4.2-.48,1.69,0,3.44.24,5.08.71,1.23.28,2.4.75,3.44,1.32.8.37,1.51.84,2.17,1.36.99.8,1.79,1.65,2.41,2.64.66.98,1.08,2.06,1.37,3.29l.09.57,9.9-2.07.51-.14-.09-.53c-.33-1.5-.8-2.91-1.42-4.24-1.03-2.36-2.5-4.42-4.24-6.07-1.27-1.32-2.69-2.45-4.19-3.39-2.31-1.37-4.75-2.41-7.26-3.06-2.59-.71-5.18-.99-7.77-1.04-2.59.05-5.18.32-7.68,1.04-1.89.51-3.67,1.26-5.37,2.21-1.28.75-2.54,1.61-3.62,2.59-1.66,1.51-3.11,3.35-4.15,5.52-1.09,2.07-1.74,4.47-1.93,7.02l-.05,1.41c0,1.51.18,2.92.56,4.33.38,1.28.94,2.5,1.61,3.63.65.98,1.41,1.93,2.26,2.72.8.71,1.6,1.37,2.45,1.93,1.65,1.04,3.35,1.8,5.09,2.41,1.5.52,3.06.93,4.62,1.32,2.68.61,5.42,1.14,8.01,1.61,1.93.38,3.81.75,5.51,1.23,1.22.32,2.41.7,3.39,1.12.75.28,1.42.67,1.98.94l1.14.81,1.13,1.22c.28.38.52.8.71,1.41.38,1.22.52,2.31.52,3.2,0,.7-.1,1.32-.24,1.88l-.61,1.41-.75,1.14c-.56.66-1.27,1.32-2.17,1.88-1.32.9-3.01,1.65-4.9,2.12-1.89.51-3.95.8-6.08.8h-.05c-1.98,0-4-.24-5.89-.71-1.46-.37-2.78-.9-4-1.51-.94-.42-1.74-.94-2.5-1.55-1.13-.81-2.07-1.84-2.83-2.97-.75-1.13-1.36-2.4-1.65-3.91l-.14-.52-10.36,2.36.14.52c.38,1.6.9,3.15,1.55,4.61,1.18,2.49,2.83,4.71,4.71,6.55,1.42,1.37,2.96,2.54,4.62,3.53,2.45,1.46,5.18,2.5,7.96,3.2,2.73.7,5.6.98,8.43.98s5.98-.37,8.81-1.12c2.13-.56,4.2-1.28,6.12-2.36,1.42-.8,2.78-1.69,4.06-2.73.94-.8,1.79-1.7,2.59-2.68,1.18-1.46,2.12-3.16,2.78-5,.7-1.84,1.03-3.87,1.03-5.93s-.37-4.24-1.03-6.4c-.47-1.47-1.08-2.78-1.84-3.96Z"></path><path class="st1" d="M331.13,415.01l-1.37-.85c-.75-.43-1.6-.85-2.64-1.22-1.04-.38-2.22-.71-3.49-.99-2.68-.57-5.18-.9-7.58-.9-4.48,0-8.62.85-12.39,2.46-3.77,1.59-7.26,4.04-10.41,7.34-3.11,3.25-5.46,6.88-7.02,10.79-1.65,3.95-2.35,8.24-2.35,12.9s.8,8.86,2.4,12.77c1.61,3.95,3.95,7.53,7.16,10.84,3.24,3.29,6.74,5.74,10.45,7.39,3.77,1.66,7.77,2.44,12.16,2.44,5.37,0,10.51-1.31,15.49-3.99v-.05c4.29-2.35,7.68-5.46,10.18-9.32l.33-.48v-82.43l-10.93-.05v33.35ZM331.13,459.67l-.14.24c-.75.94-1.61,1.79-2.69,2.64-1.08.8-2.31,1.55-3.76,2.21h-.05l-.09.05c-1.32.61-2.69,1.08-4,1.41h-.1l-2.07.33h-2.31c-2.83,0-5.46-.52-7.96-1.56-2.5-1.18-4.81-2.78-6.88-4.94-2.07-2.16-3.67-4.57-4.71-7.16-1.03-2.58-1.6-5.37-1.6-8.29v-.09c.05-2.97.52-5.7,1.56-8.29,1.03-2.54,2.59-4.95,4.62-7.16,2.07-2.17,4.38-3.82,6.87-4.9,2.5-1.08,5.23-1.65,8.15-1.65s5.32.42,7.54,1.28l.89.32.61.28h.04l.66.33.8.52c1.6,1.04,3.11,2.41,4.43,4.05l.19.23v30.15Z"></path><path class="st1" d="M273.48,422.22c-1.28-1.89-2.74-3.54-4.38-4.95-2.45-2.11-5.28-3.67-8.25-4.66-2.92-1.04-6.03-1.51-9.09-1.51s-6.35.52-9.36,1.55c-1.89.66-3.73,1.47-5.43,2.55v-4.1h-11.54v67.45h11.54v-42.3c0-1.18.15-2.26.33-3.24.38-1.75,1.04-3.17,1.89-4.39.66-.94,1.41-1.78,2.3-2.49,1.32-1.14,2.92-1.98,4.71-2.6,1.74-.57,3.67-.9,5.56-.9s3.77.33,5.47.9c1.27.47,2.44,1.04,3.49,1.79.8.61,1.46,1.18,2.12,1.93.94,1.08,1.69,2.36,2.26,3.92.52,1.55.9,3.44.9,5.7v41.44h11.54v-41.44c0-2.02-.19-3.96-.56-5.89-.66-3.24-1.84-6.21-3.48-8.76Z"></path><path class="st1" d="M214.92,420.58c-1.22-1.74-2.73-3.2-4.33-4.43-2.45-1.88-5.18-3.16-8-4-2.88-.81-5.84-1.23-8.81-1.23s-5.65.38-8.38.98c-2.07.52-4.05,1.18-6.03,2.03-2.88,1.28-5.66,2.92-8.06,5-1.18,1.08-2.31,2.21-3.3,3.54-.99,1.22-1.88,2.64-2.64,4.14l10.17,4.91c.61-1.28,1.56-2.45,2.73-3.63.9-.85,1.93-1.65,3.11-2.31,1.74-1.08,3.77-1.88,5.88-2.45,2.12-.56,4.34-.89,6.5-.89,2.03,0,4,.28,5.7.8,1.32.38,2.45.89,3.44,1.51.75.47,1.41,1.04,1.98,1.61.8.84,1.46,1.88,1.98,3.1.42,1.28.8,2.83.8,4.76v.57h-14.93c-4.38,0-8.29.65-11.77,1.74-2.59.89-4.9,2.03-6.92,3.44-3.11,2.11-5.42,4.8-6.97,7.76-1.56,3.02-2.31,6.26-2.31,9.43,0,2.68.52,5.37,1.6,7.86.76,1.84,1.84,3.67,3.16,5.19,1.98,2.4,4.57,4.42,7.68,5.84,2.97,1.26,6.4,2.02,10.13,2.07.38.05.94.05,1.69.05,1.32,0,3.15-.09,5.32-.57,1.65-.32,3.49-.89,5.46-1.69,2.49-1.04,5.13-2.54,7.87-4.62v7.45h11.26v-44.52c0-1.88-.14-3.67-.52-5.41-.66-2.97-1.84-5.7-3.48-8.01ZM207.67,455.2c-1.65,2.25-3.25,4.05-4.81,5.56-1.6,1.37-3.1,2.5-4.56,3.34-2.17,1.28-4.1,1.93-5.7,2.36-1.6.37-2.87.48-3.58.48h-.61l-.37-.11h-.38c-2.16,0-3.96-.37-5.42-.94-1.13-.42-2.03-.98-2.82-1.6-1.18-.94-2.07-2.07-2.69-3.34-.57-1.22-.9-2.59-.9-4,0-1.22.28-2.59.85-3.81.42-.91.99-1.84,1.79-2.69,1.18-1.28,2.87-2.45,5.18-3.34,2.31-.85,5.32-1.46,9.09-1.46h14.93v9.56Z"></path><path class="st1" d="M141.58,415.72v-4.61h-11.45v67.21h11.45v-42.3c0-.98.04-1.92.19-2.82.14-.75.28-1.46.52-2.12.38-1.13.89-2.12,1.6-3.01.57-.66,1.18-1.28,2.03-1.84.66-.47,1.36-.9,2.26-1.28,1.32-.56,2.97-1.08,4.99-1.41,2.03-.37,4.38-.57,7.21-.57v-11.21c-5.18,0-9.66.57-13.47,1.75-1.93.61-3.72,1.36-5.32,2.21Z"></path><path class="st1" d="M110.78,400.27c-6.12-3.34-12.48-4.99-19.07-4.99-5.32,0-10.32,1.03-14.94,3.01-4.62,2.02-8.9,5.03-12.86,9.09-3.96,4.05-6.88,8.52-8.86,13.33-1.98,4.85-2.97,10.08-2.97,15.78s.99,10.97,2.92,15.83c1.88,4.84,4.8,9.27,8.67,13.33,3.86,4,8.15,7.06,12.77,8.99,4.66,2.02,9.75,3.02,15.26,3.02,3.01,0,6.07-.38,9.32-1.08,3.2-.75,5.75-1.66,7.58-2.78l1.6-.94v1.88c0,2.26-.28,4.52-.85,6.88-.52,2.12-1.23,4.29-2.21,6.5-.99,2.16-2.22,4.19-3.72,6.13-1.13,1.55-2.4,3.01-3.82,4.37l2.26,2.22,7.35,7.21c2.26-2.22,4.24-4.58,5.98-7.02,1.84-2.64,3.39-5.46,4.67-8.39,1.36-3.3,2.4-6.65,3.02-10.12.57-2.97.85-5.93.85-9.14v-60.96c-3.16-5.04-7.44-9.13-12.95-12.15ZM110.21,454.91l-.24.28c-2.12,2.64-4.52,4.61-7.21,5.98-3.2,1.61-6.92,2.36-11.16,2.36-3.58,0-6.92-.71-10.03-2.03-3.06-1.37-5.89-3.39-8.39-6.03-2.5-2.68-4.43-5.56-5.7-8.76-1.32-3.2-1.88-6.59-1.88-10.22s.66-7.06,1.93-10.27c1.32-3.2,3.25-6.08,5.84-8.81,2.55-2.63,5.37-4.61,8.43-5.98,3.02-1.32,6.31-2.02,9.8-2.02h2.83l2.49.42h.05c1.65.42,3.34,1.04,5.04,1.79,1.84.85,3.39,1.74,4.71,2.73,1.32,1.04,2.45,2.13,3.3,3.25l.19.28v37.02Z"></path><path class="st1" d="M237.17,107.81c1.82,0,3.56-.73,4.76-1.98,1.73-1.75,1.94-3.56,1.94-9.66s-.21-7.92-1.94-9.68c-1.2-1.24-2.94-1.98-4.76-1.98s-3.58.74-4.77,1.98c-1.73,1.76-1.94,3.57-1.94,9.68,0,6.1.21,7.91,1.94,9.68,1.2,1.24,2.94,1.97,4.77,1.97Z"></path><path class="st1" d="M369.81,156.5c1.95,0,3.81-.8,5.09-2.11,1.85-1.88,2.06-3.81,2.06-10.3s-.22-8.41-2.06-10.3c-1.28-1.32-3.14-2.11-5.09-2.11s-3.81.8-5.09,2.11c-1.83,1.89-2.05,3.8-2.06,10.3.01,6.5.23,8.42,2.06,10.3,1.28,1.32,3.15,2.11,5.09,2.11Z"></path><path class="st1" d="M328.55,156.5c1.95,0,3.81-.8,5.09-2.11,1.84-1.88,2.06-3.81,2.06-10.3s-.22-8.41-2.06-10.3c-1.28-1.32-3.14-2.11-5.09-2.11s-3.81.8-5.09,2.11c-1.83,1.89-2.06,3.8-2.06,10.3s.22,8.42,2.06,10.3c1.28,1.32,3.15,2.11,5.09,2.11Z"></path><path class="st1" d="M319.65,89.75c-.02-3.36-2.16-4.96-5.43-5h-7.41v9.96h7.41c3.27-.04,5.41-1.6,5.43-4.96Z"></path><path class="st1" d="M271.88,333.12h171.46V59.79H170.02v167.88h-42.96v144.8h144.82v-39.34ZM420.89,156.6v3.31h-19.81v-31.64h4v27.97h15.81v.36ZM396.55,81.27h3.68l9.24,20.11,9.01-20.11h3.69v29.78h-3.82v-20.81l-7.37,16.24h-3.12l-7.5-16.26v20.83h-3.81v-29.78ZM359.74,106.85l2.38-2.37.25.25c2.36,2.35,4.45,3.06,7.66,3.08,4.16-.04,6.49-1.87,6.51-5.03,0-1.46-.43-2.64-1.27-3.37-.89-.76-1.49-.97-3.62-1.3l-3.39-.53c-2.33-.37-4.19-1.13-5.52-2.3-1.56-1.37-2.34-3.29-2.33-5.69,0-5.13,3.78-8.56,9.67-8.57,3.77,0,6.36.99,8.88,3.29l.28.24-.26.27-2.25,2.24-.25-.23c-1.75-1.58-3.54-2.38-6.53-2.39-3.76.02-5.76,2-5.78,5.03,0,1.36.39,2.38,1.19,3.08.81.71,2.28,1.27,3.73,1.51l3.19.49c2.75.4,4.21,1.01,5.48,2.12,1.68,1.42,2.57,3.53,2.57,6.02,0,5.33-4.24,8.59-10.39,8.6-4.43,0-7.43-1.15-10.22-3.94l-.26-.25.26-.25ZM361.66,131.33c2.14-2.15,4.98-3.32,8.15-3.32s6.01,1.17,8.16,3.32c3.02,3.03,3.01,6.23,3.01,12.76s.01,9.74-3.01,12.76c-2.15,2.15-4.99,3.32-8.16,3.32-3.18,0-6.01-1.17-8.15-3.32-3.03-3.02-3.03-6.23-3.02-12.76,0-6.53-.01-9.73,3.02-12.76ZM340.2,81.27h3.8v29.78h-3.8v-29.78ZM336.71,131.33c3.02,3.03,3.01,6.23,3.01,12.76s0,9.74-3.01,12.76c-2.15,2.15-4.99,3.32-8.16,3.32-3.17,0-6.01-1.17-8.16-3.32-3.02-3.02-3.02-6.23-3.02-12.76,0-6.53,0-9.73,3.02-12.76,2.14-2.15,4.98-3.32,8.16-3.32s6.01,1.17,8.16,3.32ZM303,81.27h11.51c5.21,0,8.95,3.23,8.96,8.44.01,4.23-2.53,7.06-6.19,7.99l6.72,12.83.27.52h-4.44l-6.61-12.9h-6.42v12.9h-3.81v-29.78ZM293.29,128.27h4v31.64h-4v-14.12h-13.98v14.12h-4.01v-31.64h4.01v13.86h13.98v-13.86ZM255.69,137.51l.07.42h-4.1l-.06-.28c-.82-3.66-3.29-5.96-6.99-5.98-1.96,0-3.81.75-5.1,2.07-1.84,1.87-2.07,3.85-2.07,10.35s.23,8.47,2.07,10.35c1.28,1.31,3.14,2.06,5.1,2.06,3.7,0,6.27-2.33,7.08-5.97l.06-.29h4.01l-.06.42c-1.01,5.97-5.41,9.52-11.08,9.5-3.14,0-6.01-1.17-8.16-3.32-3.03-3.02-3.02-6.23-3.02-12.76s-.01-9.73,3.02-12.76c2.15-2.15,5.02-3.32,8.16-3.32,5.7,0,10.03,3.53,11.08,9.5ZM229.48,84.14c2.03-2.03,4.7-3.13,7.69-3.13s5.65,1.1,7.67,3.13c2.85,2.85,2.85,5.89,2.85,12.02s0,9.15-2.85,12c-2.02,2.03-4.69,3.13-7.67,3.13s-5.66-1.1-7.69-3.13c-2.85-2.85-2.84-5.87-2.84-12s0-9.17,2.84-12.02ZM214.19,131.74l-.26.26-2.37,2.37-.24-.21c-1.87-1.7-3.78-2.55-6.97-2.56-3.99.03-6.13,2.13-6.15,5.39,0,1.45.4,2.54,1.26,3.28.88.76,2.44,1.37,4,1.61l3.38.52c2.93.43,4.47,1.08,5.82,2.26,1.78,1.51,2.74,3.76,2.74,6.39-.02,5.65-4.51,9.12-11.05,9.13-4.7,0-7.89-1.22-10.85-4.19l-.25-.26.25-.25,2.5-2.5.26.25c2.52,2.5,4.76,3.28,8.18,3.29,4.42-.04,6.92-2,6.93-5.38,0-1.54-.45-2.82-1.35-3.6-.95-.81-1.6-1.03-3.86-1.39l-3.6-.56c-2.47-.41-4.45-1.21-5.87-2.44-1.64-1.46-2.47-3.49-2.47-6.04.01-5.45,4-9.08,10.26-9.09,4,0,6.76,1.04,9.45,3.48l.27.25ZM192.79,84.39v-3.13h20.64v3.48h-8.41v26.29h-3.81v-26.29h-8.41v-.35ZM265.39,365.98h-131.83v-131.82h131.83v131.82ZM264.29,101.1v-19.84h3.8v19.59c.03,4.26,2.6,6.93,6.69,6.96,4.06-.03,6.68-2.69,6.7-6.96v-19.59h3.82v19.84c0,5.99-4.48,10.18-10.52,10.19-6.06-.01-10.48-4.21-10.49-10.19Z"></path></svg>